<?xml version="1.0" encoding="utf-8"?>
<!-- Generator: Adobe Illustrator 17.1.0, SVG Export Plug-In . SVG Version: 6.00 Build 0)  -->
<!DOCTYPE svg PUBLIC "-//W3C//DTD SVG 1.1//EN" "http://www.w3.org/Graphics/SVG/1.1/DTD/svg11.dtd">
<svg version="1.1" id="Слой_1" xmlns="http://www.w3.org/2000/svg" xmlns:xlink="http://www.w3.org/1999/xlink" x="0px" y="0px"
	 viewBox="68.8 368.1 487.1 90.9" enable-background="new 68.8 368.1 487.1 90.9" xml:space="preserve">
<g id="Слой_2">
</g>
<g id="_x33__1_">
	<g id="Фигура_38_копия_2_6_">
		<g>
			<path fill="#010101" d="M68.8,431L86,413.6l-17.3-12.9V431z M105.5,393.6l-36.7-25.5v22.5l23.5,16.1L105.5,393.6z M89.5,459h23.1
				l26.7-26.8v-24.6L89.5,459z"/>
		</g>
	</g>
	<g id="Фигура_38_копия_2_4_">
		<g>
			<polygon fill="#565656" points="72.8,438.4 84.3,452.5 139.3,397.1 139.3,370.3 			"/>
		</g>
	</g>
	<g id="Smart__копия_22_2_">
		<g>
			<path fill="#565656" d="M180.3,418.6c-0.2-0.2-0.5-0.5-0.8-0.8c-3-3-4.5-5.4-4.5-6.9c0-1.2,0.3-2.2,1.2-2.9c0.8-0.7,1.8-1,3.2-1
				c1.5,0,3,0.3,4.7,1c1.7,0.7,3.4,1.5,5,2.9l2.3-14.3c-2.3-1.2-4.5-2-6.7-2.5s-4.5-0.8-6.9-0.8c-6,0-10.7,1.7-14.3,4.9
				c-3.5,3.4-5.2,7.7-5.2,13.2c0,2.5,0.5,4.7,1.5,6.7c1,2,2.9,4.4,5.7,7c2.3,2.2,3.9,3.9,4.5,5.2c0.8,1.3,1.2,2.7,1.2,4
				c0,1.5-0.5,2.7-1.3,3.7c-1,0.8-2.2,1.3-3.9,1.3c-1.8,0-3.7-0.3-5.7-1.2c-2-0.8-3.9-2-5.7-3.5l-2.9,15.4c1.7,1.2,3.9,2.2,6.4,2.9
				c2.5,0.7,5.2,1,8,1c6.5,0,11.9-1.8,15.6-5.4c3.9-3.5,5.7-8.6,5.7-14.8c0-2.9-0.5-5.2-1.3-7.4
				C185.1,424.1,183.3,421.6,180.3,418.6z M237.3,410.9c-2.3,0-4.4,0.7-6.2,1.8c-1.8,1.2-3.4,2.9-4.4,5.2c-0.3-2.2-1.2-3.9-2.9-5
				c-1.7-1.2-3.7-1.8-6.5-1.8c-2,0-3.9,0.3-5.5,1.2c-1.7,0.8-3.4,2-4.7,3.7l0.7-4.2h-13.2l-6.4,40.9h14.6l3.9-24
				c0.2-1.3,0.5-2.3,1-3c0.5-0.7,1.2-1,2.2-1c0.7,0,1.2,0.2,1.5,0.7c0.3,0.5,0.7,1,0.7,1.8c0,0,0,0.3-0.2,0.8c0,0.2,0,0.3,0,0.5
				l-3.9,24h14.6l3.7-24c0.2-1.3,0.5-2.3,1-3c0.5-0.7,1.2-1,2-1c0.7,0,1.3,0.2,1.7,0.7c0.5,0.5,0.7,1,0.7,1.8c0,0,0,0.3-0.2,0.8
				c0,0.2,0,0.3,0,0.5l-3.9,24.1h14.6l4.2-26.7c0.2-1,0.3-2,0.3-3s0.2-1.8,0.2-2.7c0-2.9-0.8-5.2-2.5-6.9
				C242.8,411.7,240.5,410.9,237.3,410.9z M274.8,411.6l-0.7,4.4c-1.2-2-2.3-3.4-3.9-4.2c-1.3-0.8-3-1.3-4.9-1.3
				c-4.9,0-8.9,2.7-12.1,8.2c-3.2,5.5-4.9,12.4-4.9,20.6c0,4.5,0.8,8,2.7,10.6c1.8,2.5,4.2,3.7,7.4,3.7c1.8,0,3.5-0.5,5.2-1.3
				c1.7-0.8,3.4-2.3,5.2-4.4l-0.7,4.5h14.6l6.4-40.9h-14.4V411.6z M270,437c-1,2.5-2.3,3.9-3.7,3.9c-0.8,0-1.5-0.3-2-1.2
				c-0.5-0.8-0.7-2-0.7-3.5c0-3.5,0.5-6.5,1.7-9.1c1-2.5,2.3-3.7,3.9-3.7c0.8,0,1.5,0.3,2,1.2c0.5,0.8,0.7,2,0.7,3.5
				C271.6,431.5,271.1,434.5,270,437z M339.2,411.6l1.8-12.1h-14.8l-1.7,10.4l-6,0.5c-2.3,0.2-4.5,0.8-6.5,2c-2,1.2-3.9,2.7-5.5,4.9
				l0.8-5.7h-13.9l-6.4,40.9h14.8l2.9-18.3c0.5-3.5,1.7-6,3.4-7.4c1.7-1.3,4.4-2,7.9-2h0.3l6,0.2l-4.4,27.3h14.6l4.5-28h5.2l2-12.9
				h-5V411.6z"/>
		</g>
	</g>
	<g id="Pourer_копия_18_1_">
		<g>
			<path fill="#828282" d="M370.9,396h-19.3v57.2h4.4v-21.8h14.9c10.2,0,17.6-7.5,17.6-17.6C388.7,403.5,381.1,396,370.9,396z
				 M370.9,427.3H356V400h14.9c7.7,0,13.4,5.7,13.4,13.6C384.3,421.6,378.8,427.3,370.9,427.3z M410.5,411.4
				c-11.9,0-21.3,9.2-21.3,21.3s9.6,21.3,21.3,21.3s21.3-9.2,21.3-21.3S422.2,411.4,410.5,411.4z M410.5,450.1
				c-9.6,0-17.1-7.7-17.1-17.4s7.5-17.4,17.1-17.4s17.1,7.7,17.1,17.4S420.2,450.1,410.5,450.1z M466.2,433.9
				c0,11.1-6.2,16.3-14.3,16.3c-7.5,0-11.9-4.9-11.9-12.4v-25.5h-4v25.5c0,9.9,6,16.3,15.8,16.3c6.2,0,11.4-2.7,14.4-8.7v7.7h4
				v-40.7h-4V433.9z M493.7,411.7c-5.5,0-10.7,2.2-13.6,8.6v-8h-4v40.9h4v-22.6c0-10.4,6.5-14.8,13.6-14.8V411.7z M514.3,411.4
				c-12.4,0-21,9.4-21,21.3c0,12.4,8.9,21.3,21.3,21.3c8,0,14.3-3.7,17.6-9.2l-3.5-2.2c-2.3,4.4-7.4,7.4-14.1,7.4
				c-9.2,0-16.3-6-17.1-15.3h36.7c0-0.7,0-1.3,0-2C534.2,421.8,526.7,411.4,514.3,411.4z M497.5,430.8c0.8-9.1,7.5-15.6,16.8-15.6
				c7.9,0,14.9,5.5,15.8,15.6H497.5z M542.3,420.3v-8h-4v40.9h4v-22.6c0-10.4,6.5-14.8,13.6-14.8v-3.9
				C550.3,411.7,545,413.9,542.3,420.3z"/>
		</g>
	</g>
</g>
</svg>
