<?xml version="1.0" standalone="no"?>
<!DOCTYPE svg PUBLIC "-//W3C//DTD SVG 20010904//EN"
 "http://www.w3.org/TR/2001/REC-SVG-20010904/DTD/svg10.dtd">
<svg version="1.0" xmlns="http://www.w3.org/2000/svg"
 width="462.000000pt" height="462.000000pt" viewBox="0 0 462.000000 462.000000"
 preserveAspectRatio="xMidYMid meet">
<metadata>
Created by potrace 1.11, written by Peter Selinger 2001-2013
</metadata>
<g transform="translate(0.000000,462.000000) scale(0.100000,-0.100000)"
fill="#000000" stroke="none">
<path d="M520 4048 l1 -573 252 -172 c139 -94 306 -209 372 -254 66 -45 221
-152 344 -236 l224 -154 61 59 c34 33 95 92 136 132 351 339 482 472 472 482
-7 7 -45 34 -86 62 -201 138 -584 403 -631 436 -28 20 -641 443 -905 625 -63
43 -143 98 -177 122 l-63 44 0 -573z"/>
<path d="M4063 4463 c-20 -21 -169 -174 -332 -341 -163 -167 -348 -356 -411
-422 -63 -65 -250 -256 -415 -425 -165 -169 -336 -344 -380 -389 -44 -46 -228
-235 -410 -421 -181 -186 -370 -380 -420 -430 -49 -51 -232 -238 -405 -415
-173 -177 -370 -379 -436 -448 l-122 -125 60 -71 c32 -39 85 -102 116 -141 31
-38 58 -72 61 -75 4 -3 24 -27 46 -55 22 -27 47 -59 57 -70 9 -11 44 -54 78
-95 34 -41 78 -95 98 -119 21 -24 43 -52 50 -63 7 -10 17 -18 22 -18 5 0 59
51 122 114 183 183 1713 1727 2210 2229 l458 462 0 678 c0 372 -2 677 -5 677
-3 0 -22 -17 -42 -37z"/>
<path d="M520 2193 l1 -768 295 300 c163 165 360 366 439 447 l144 147 -92 67
c-51 37 -246 182 -435 321 -188 139 -344 253 -347 253 -3 0 -5 -345 -5 -767z"/>
<path d="M3869 2368 c-129 -133 -259 -267 -289 -298 -30 -32 -158 -164 -285
-295 -126 -130 -264 -272 -305 -315 -41 -43 -172 -177 -290 -300 -118 -122
-255 -263 -304 -313 -109 -113 -505 -523 -683 -706 l-132 -136 587 -3 587 -2
678 682 677 682 0 623 c0 343 -2 623 -3 623 -2 0 -109 -109 -238 -242z"/>
</g>
</svg>
